<?xml version="1.0" encoding="utf-8"?>
<!-- Generator: Adobe Illustrator 21.0.0, SVG Export Plug-In . SVG Version: 6.00 Build 0)  -->
<svg version="1.1" id="Layer_1" xmlns="http://www.w3.org/2000/svg" xmlns:xlink="http://www.w3.org/1999/xlink" x="0px" y="0px"
	 viewBox="0 0 24 29" style="enable-background:new 0 0 24 29;" xml:space="preserve">
<g id="pRf9oR.tif">
	<g fill="white">
		<path d="M10.1,4.7c2.6-0.3,4.9,0,7.1,1c5,2.4,7.7,7.9,6.5,13.4c-1.2,5.4-6.3,9.3-12,9.1C6.3,28,1.4,23.9,0.6,18.5
			c-0.3-1.8,0.1-3.7,0.2-5.5c0.1-0.8,0.6-1.6,1.6-1.3c1,0.3,0.9,1.1,0.6,1.9c-1.5,5.2,1.5,10.5,6.7,11.8c5.2,1.3,10.4-1.9,11.5-7.2
			c1.4-6.1-3.8-11.9-10.1-11.3c-0.1,0-0.2,0.1-0.5,0.2C11.6,7.6,12.3,8,13,8.3c0.7,0.4,1,1,0.6,1.7c-0.4,0.7-1,0.8-1.7,0.4
			c-1.6-0.9-3.2-1.7-4.8-2.6c-0.8-0.4-0.9-1-0.5-1.7c0.9-1.6,1.7-3.3,2.6-4.9c0.4-0.7,0.9-1,1.7-0.6c0.8,0.4,0.7,1.1,0.3,1.8
			C10.9,3.1,10.5,3.8,10.1,4.7z"/>
	</g>
</g>
</svg>
